<?xml version="1.0" standalone="no"?>
<!DOCTYPE svg PUBLIC "-//W3C//DTD SVG 20010904//EN"
 "http://www.w3.org/TR/2001/REC-SVG-20010904/DTD/svg10.dtd">
<svg version="1.0" xmlns="http://www.w3.org/2000/svg"
 width="700.000000pt" height="700.000000pt" viewBox="0 0 700.000000 700.000000"
 preserveAspectRatio="xMidYMid meet">
<metadata>
Created by potrace 1.14, written by Peter Selinger 2001-2017
</metadata>
<g transform="translate(0.000000,700.000000) scale(0.100000,-0.100000)"
fill="#000000" stroke="none">
<path d="M1535 6993 c-244 -31 -390 -61 -555 -118 -503 -171 -856 -495 -955
-876 l-24 -94 0 -2405 0 -2405 24 -94 c118 -456 606 -829 1251 -956 228 -45
192 -44 2264 -41 1806 2 1973 3 2065 19 279 48 457 104 669 209 166 82 284
165 407 288 151 149 240 293 292 469 l22 76 0 2430 0 2430 -24 84 c-28 98 -99
242 -161 326 -44 60 -178 200 -235 244 -219 171 -511 302 -820 367 -247 52
-213 52 -2270 51 -1056 0 -1933 -2 -1950 -4z"/>
</g>
</svg>
